<svg id="Calque_1" data-name="Calque 1" xmlns="http://www.w3.org/2000/svg" viewBox="0 0 1539.53 1539.53"><defs><style>.cls-1{fill:#fefeff;}.cls-2{fill:#4258a4;}.cls-3{fill:#548dcb;}</style></defs><path class="cls-1" d="M-174.41-201.4q767.88,0,1535.77-.07c3,0,3.68.68,3.68,3.68q-.12,766.08,0,1532.17c0,3-.68,3.68-3.68,3.68q-766.08-.12-1532.17,0c-3,0-3.68-.68-3.68-3.68Q-174.37,566.49-174.41-201.4ZM915.67,438.14c.14,2.13.35,4.25.42,6.38,1.75,55.15-8.88,107.68-33.4,157.25a313.07,313.07,0,0,1-34.25,54.42c-1.56,2-1.55,2.9.6,4.23a57.73,57.73,0,0,1,8.11,5.84c2.38,2.11,3.46,1.35,5.15-.89,48.75-64.7,72.28-137.45,69.94-218.5a301.91,301.91,0,0,0-2.63-34.27,325.87,325.87,0,0,0-55.69-145c-2.2-3.2-1.82-4.63,1.36-6.61,10.36-6.44,20.63-13,30.73-19.88,3.49-2.37,5.8-2.73,9.57,0,9.68,7,20.44,7.53,31.08,2.29,11-5.4,17-14.71,17.32-26.85.35-13.36-6-23.3-18.06-29.2-11.33-5.56-24.94-3.41-34.47,5.88-9.32,9.09-11.94,20.33-7.66,32.71,1.08,3.15.74,4.54-2.07,6.31-11,7-21.94,14.2-32.77,21.51-2.44,1.64-3.68,1.85-5.64-.8a312.48,312.48,0,0,0-32-36.84c-39.15-38.75-85.25-65.89-137.76-82.37a335.06,335.06,0,0,0-79.27-14.52c-3.08-.19-4.4.45-4.08,3.78a41.09,41.09,0,0,1,0,8.8c-.41,3.2,1.08,3.86,3.76,4a300.33,300.33,0,0,1,43.56,5.76A314.23,314.23,0,0,1,737.64,169,325.31,325.31,0,0,1,900.27,357.79C908.92,383.89,913.55,410.78,915.67,438.14ZM466.85,160.05a7.12,7.12,0,0,0,1.54-.3A319.13,319.13,0,0,1,581,135.17c2.79-.1,3.36-1.11,3.25-3.57a73.19,73.19,0,0,1,.14-9.6c.3-3.18-1-3.79-3.89-3.63-30.33,1.73-60.19,6.17-89.24,15.3-13.71,4.31-27.31,9-40.1,15.69a11.75,11.75,0,0,0-1.52.5,348.33,348.33,0,0,0-94,65.1,326,326,0,0,0-73.91,106.51c-1,2.36-1.88,2.83-4.31,1.83Q263.21,317.45,248.8,312c-3.33-1.24-5.45-2.39-4.42-6.69.62-2.59-.07-5.57-.52-8.32-3.27-20-23-33.41-43.34-29.54-19.84,3.78-33.28,23.86-28.94,43.32,3.33,14.93,12.4,24.83,27.16,28.48,15.06,3.71,27.94-.9,37.88-12.94,1.34-1.62,2.27-1.94,4.2-1.16,9.87,4,19.75,8,29.76,11.67,3.35,1.22,4.12,2.32,2.83,5.88-15.77,43.57-22.72,88.47-19.79,134.8a355,355,0,0,0,11.29,69.83,343.79,343.79,0,0,0,20.68,56.25c1.09,2.34,2,2.65,4,1.13a39.21,39.21,0,0,1,7.15-4.39c3.71-1.66,4-3.59,2.3-7.25-26.86-58.88-36-120.38-25.6-184.32q21.73-133.46,131.1-213.56A318.27,318.27,0,0,1,466.85,160.05Zm417.7,251.7a10.4,10.4,0,0,0,0-1.58c-4.59-28.19-12.48-55.46-25.46-80.9-41.5-81.33-106-134.68-194.7-157.95-19.28-5.06-39-7.54-58.87-8.52-2.82-.14-3.56-1-3.51-3.73.19-10.27.29-20.54.5-30.81.37-17.74.31-35.5.26-53.25,0-2.86.75-4.08,3.61-4.94,16.77-5,25.48-22.22,20.74-39-4-14-23.27-26.71-39.2-20.39C575,15.76,566,27.21,566.26,41.13a30.79,30.79,0,0,0,22.79,29.06c2.89.78,3.64,2.06,3.6,4.91-.35,21.88-.56,43.77-.77,65.65-.06,6.27-.09,12.55,0,18.82,0,2.25-.7,3-3,3A214.09,214.09,0,0,0,563,164.1c-10.83,1.21-21.7,2.31-32.23,5.35-1.06.15-2.14.22-3.17.47-95.08,23.39-163.69,79.3-204.79,168.15-19.05,41.21-27,85-25.31,130.4,1.56,41.61,11,81.32,29.3,118.79,1.12,2.3.93,3.27-1.26,4.61q-29.5,18-58.85,36.34c-2.59,1.62-3.94,1.76-6.16-.64a37.87,37.87,0,0,0-26.6-12.22c-18-1-33.82,9.74-40,26.75a40.11,40.11,0,1,0,75.59,0c-1-2.78-.31-3.86,2-5.25C289.32,626,307.11,614.94,324.92,604c2.5-1.54,5.14-4.45,7.46-4.22,2.55.25,3,4.51,4.49,6.94,20.89,34.14,46.28,64.27,78.71,88.08a4.78,4.78,0,0,1,2.14,5.1c-1.33,9.27-1.33,18.6-1.1,27.93l-.7.65c-1.26-.75-2.55-1.45-3.77-2.25-37.85-24.87-68.39-56.87-92.69-95-2.2-3.45-3.49-9.25-6.74-9.74s-6.9,3.82-10.55,5.71c-2.68,1.39-2.71,2.61-1.19,5.12,29.06,47.87,67,86.92,115,116a7.89,7.89,0,0,1,4.15,5.48c6.72,33.93,22.43,63.4,44.68,89.59a113.24,113.24,0,0,0,8.12,8.83c2.44,2.33,5.52,2.51,8.58,1.11a7.34,7.34,0,0,0,4.53-7c.13-4.27.29-8.53.32-12.8a167.9,167.9,0,0,1,4-36.82c.29.2.62.3.69.49a11.42,11.42,0,0,1,.46,1.92,205.33,205.33,0,0,0,28.39,75.12c23.54,38.28,55.81,67.8,93.09,92.23a7.82,7.82,0,0,0,9,.18,7.72,7.72,0,0,0,3.44-9.06c-.88-3.36-2-6.65-2.93-10-14.62-50.34-11-99.72,7.84-148.3,1-2.49,2.28-3.74,5.15-4.07A297.94,297.94,0,0,0,667,789.79q99.22-22.6,170.3-95.45c6.16-6.31,6.09-6.37-.89-11.35-6.48-4.61-6.47-4.6-12.23,1.23-42.74,43.2-93.32,72.76-152.35,87.64A272.29,272.29,0,0,1,639.36,778c4.74-9.47,9.28-18.34,13.61-27.32a7.3,7.3,0,0,1,5.69-4.3,256.37,256.37,0,0,0,25.06-6.84c49.15-15.92,91.16-43,126.35-80.79,1.46-1.58,2.34-2.78,4.77-1q30.15,21.84,60.52,43.35c2,1.43,1.94,2.53,1,4.56a39.22,39.22,0,0,0-2.79,23.47,40.15,40.15,0,1,0,61.24-41c-15.76-10-35.92-8.19-49.15,4.48-1.63,1.56-2.5,1.89-4.52.43q-29.5-21.36-59.25-42.38c-2.67-1.89-2.32-2.8-.49-5a287.37,287.37,0,0,0,38.68-61C885.74,529.5,894.19,471.89,884.55,411.75Zm37.51,698.12c8.23-4.08,10.92-11.11,11.49-19.19a80.67,80.67,0,0,0,0-13.19c-1.41-14.87-9.47-22.24-24.41-22.46-9.2-.14-18.42.09-27.63-.1-2.79-.06-3.28,1-3.26,3.44.1,12.28,0,24.56,0,36.84,0,24.56.06,49.12-.07,73.68,0,3.13.78,4.06,4,4,8.94-.23,17.89,0,26.83-.1,16.31-.22,26.2-10,26.52-26.26.1-4.94.19-9.89,0-14.82C935,1122.24,932,1114.18,922.06,1109.87Zm-533.15,6.25c0-7.76,0-13.24,0-18.71s.14-11.23-.18-16.82c-.93-16.87-10.19-25.56-27-25.57-8.54,0-17.09.1-25.64-.06-2.66,0-3.34.78-3.31,3.37.13,11.48.05,23,.05,34.45q0,38.06,0,76.12c0,1.86-.75,4,2.7,3.94,9.35-.2,18.71.16,28-.13,14-.43,22.73-8.19,24.61-22.07C389.89,1138.43,388.46,1126.1,388.91,1116.12Zm426,56.66c2,0,4-.14,6,0,2.61.24,3.48-.47,3-3.3q-9.21-55.65-18.16-111.34c-.41-2.56-1.28-3.3-3.79-3.23-6.27.17-12.55.18-18.82,0-2.5-.07-3.46.73-3.86,3.19q-9,55.89-18.17,111.75c-.41,2.49.31,3,2.59,2.94,3.87-.13,7.75-.16,11.61,0,2.21.11,3-.65,3.24-2.82.7-5.83,1.72-11.61,2.46-17.44.29-2.22,1.06-3.17,3.52-3.06,4.93.22,9.88.21,14.81,0,2.48-.11,3.19.81,3.38,3.12.32,3.72,1,7.4,1.53,11.1C805.62,1172.79,805.63,1172.79,814.91,1172.78ZM579,1143.71l-.69-.09c-.64-4.88-1.27-9.77-1.92-14.65-3.15-23.67-6.35-47.34-9.38-71-.32-2.47-1.22-3.07-3.51-3-4.26.16-8.55.19-12.81,0-2.7-.12-3,.77-2.56,3.23,2.11,13.17,4,26.38,6,39.57,3.63,23.87,7.32,47.73,10.85,71.61.39,2.63,1.17,3.59,3.94,3.48,5.86-.23,11.75-.29,17.61,0,3.25.17,3.94-1.15,4.36-4,3-20.59,6.17-41.16,9.29-61.74,2.46-16.22,4.89-32.44,7.41-48.65.37-2.4.2-3.75-2.82-3.53a72.1,72.1,0,0,1-10.8,0c-2.76-.22-3.36,1.1-3.66,3.37q-4.49,34.51-9.06,69C580.5,1132.8,579.73,1138.26,579,1143.71Zm-132.63-30c0,18.55,0,37.1,0,55.65,0,2.41.37,3.49,3.23,3.46,14.81-.16,29.62-.12,44.43,0,2.21,0,3.13-.52,3-2.88a102.39,102.39,0,0,1,0-10.8c.16-2.72-.59-3.71-3.51-3.64-8.4.2-16.81,0-25.22.12-2.36,0-3.26-.56-3.23-3.1q.21-14.82,0-29.62c0-2.57.85-3.14,3.22-3.09,6.4.14,12.81,0,19.21.1,2.24,0,3.11-.58,3-2.91-.15-3.73-.2-7.48,0-11.2.16-2.76-.93-3.33-3.47-3.26-6.4.17-12.81,0-19.21.09-2.08,0-2.77-.63-2.75-2.74.1-8.4.13-16.81,0-25.22,0-2.44.95-2.84,3.06-2.79,5.2.12,10.41.08,15.61,0,4.25,0,9.94,1.44,12.35-.72,2.78-2.48.48-8.3.91-12.63.28-2.79-.68-3.63-3.51-3.6q-21.83.21-43.64,0c-2.81,0-3.56.76-3.54,3.55C446.41,1076.92,446.35,1095.33,446.36,1113.74Zm215.53-.11c0,18.55.05,37.11-.06,55.66,0,2.78.73,3.59,3.55,3.56,14.15-.14,28.29-.11,42.44,0,2.32,0,3.42-.39,3.27-3a99.63,99.63,0,0,1,0-11.2c.14-2.55-.83-3.13-3.22-3.09-8,.13-16,0-24,.1-2.34,0-3.57-.52-3.21-3.09a16,16,0,0,0,0-2.4c0-30.3,0-60.59.07-90.89,0-3.11-.42-4.64-4-4.3a64.45,64.45,0,0,1-11.2,0c-3.18-.27-3.69,1-3.67,3.84C661.94,1077.06,661.89,1095.35,661.89,1113.63Zm-406.49,0c0,18.54,0,37.08-.06,55.63,0,2.72.62,3.8,3.53,3.6a78.66,78.66,0,0,1,11.59,0c3.21.25,3.86-1,3.66-3.88-.23-3.19-.06-6.4-.06-9.61,0-33.48,0-67,.08-100.45,0-3.09-.71-4.25-3.94-4a61.72,61.72,0,0,1-10.79,0c-3.52-.32-4.11,1.07-4.08,4.26C255.48,1077.31,255.4,1095.45,255.4,1113.6Zm576-954.34a6,6,0,0,1,1.2,0c8.7,1.67,13.83-1.68,17.94-9.82,6.36-12.6,6.32-11.91-.06-24.72-4.17-8.37-9.5-10.16-18.27-10.42-10.09-.3-15.52,2.77-20.45,11.72-4.54,8.24-5,13.94,0,22.15S821,162.32,831.38,159.26ZM734.49,72.81c-11.87,0-11.28.41-17.27,9-4.8,6.87-3.78,11.86.07,18.77s8.32,8.79,15.93,9c7.92.18,11.8-2.61,15.82-9.15,4.31-7,4.11-12-.1-18.81C745,75.1,741.38,70.5,734.49,72.81Zm71.89,18.11c10.17,0,10.17,0,14.55-7.76a1.9,1.9,0,0,1,.2-.34c4.33-4.86,3.1-9.14.12-14.58-3.26-5.94-6.88-7.89-13.59-7.89S797.18,62,793.94,68.07c-2.92,5.44-3.77,9.34-.13,14.93C797.34,88.43,800.12,93.18,806.38,90.92ZM854.7,59.3c-2,.49-4.56-1-6,1C846.73,63,844,66,844,68.93s2.77,5.85,4.48,8.7c1.13,1.88,3.16,1.16,4.77,1.05,2.42-.16,5.4,1.29,7.16-1.05C862.4,75,865,71.88,865,69s-2.73-5.92-4.61-8.65C859,58.37,856.61,59.75,854.7,59.3Z" transform="translate(174.49 201.47)"/><path class="cls-2" d="M416.62,727.78c-.23-9.33-.23-18.66,1.1-27.93a4.78,4.78,0,0,0-2.14-5.1c-32.43-23.81-57.82-53.94-78.71-88.08-1.49-2.43-1.94-6.69-4.49-6.94-2.32-.23-5,2.68-7.46,4.22-17.81,11-35.6,22-53.47,32.93-2.27,1.39-2.94,2.47-2,5.25a39.88,39.88,0,0,1-14,45.68,40.14,40.14,0,0,1-61.6-45.71c6.19-17,22-27.73,40-26.75a37.87,37.87,0,0,1,26.6,12.22c2.22,2.4,3.57,2.26,6.16.64q29.31-18.36,58.85-36.34c2.19-1.34,2.38-2.31,1.26-4.61-18.33-37.47-27.74-77.18-29.3-118.79-1.71-45.42,6.26-89.19,25.31-130.4,41.1-88.85,109.71-144.76,204.79-168.15,1-.25,2.11-.32,3.17-.47,1.16,2.2,3.22,3.38,5.13,4.85,3.46,2.67,8.6,3.35,10.2,8.3a10.75,10.75,0,0,1-1.52.49,273.52,273.52,0,0,0-69.39,21.83C428.72,226.58,391.31,259,362,300.8a255.41,255.41,0,0,0-26.68,49.45c-22.15,53.72-27.15,109-15.85,165.9a257.84,257.84,0,0,0,17.77,55.26,270,270,0,0,0,28.35,49.11A298.88,298.88,0,0,0,418,676c2.69,2.19,3.44,1.62,4.34-1.37,2.08-7,4.25-13.91,6.79-20.71,1-2.74.5-4.31-1.57-6.09A238.23,238.23,0,0,1,399,618.66a248.86,248.86,0,0,1-41.48-71.48c-14.68-39.1-19.23-79.39-14.21-120.79a137,137,0,0,1,3.8-21.25,7.79,7.79,0,0,1,9-5.55,7.56,7.56,0,0,1,6.61,7.77,24.84,24.84,0,0,1-.54,5.16,212.45,212.45,0,0,0-4.29,35.32c-1.66,41.65,7.1,81.05,25.79,118.28a219.89,219.89,0,0,0,31.84,46.93c6.19,7,12.23,14.26,19.85,20,2.2,1.66,2.85,1.51,4.15-.5,4-6.17,7.91-12.37,12.15-18.36,1.47-2.08,1-3.08-.62-4.58a198.72,198.72,0,0,1-31.87-37.91,205.16,205.16,0,0,1-33.7-112.25c0-5.68,3-9.14,7.7-9.32,5.1-.2,8.31,3,8.54,8.9.29,7.34.54,14.67,1.48,22Q412,549.21,461.5,597c1.9,1.84,3,1.63,4.79,0,5.92-5.58,11.88-11.14,18.1-16.39,2.52-2.13,2.2-3.36.32-5.64a189.56,189.56,0,0,1-34.15-61.6c-14.08-43-13.67-86.37-3.55-130,4-17.39,10.1-34.27,13.63-51.82.49-2.47.72-4.34-1.59-6.3a100.37,100.37,0,0,1-31.72-47.61c-3-9.71-3.79-19.7-4.68-29.7a9.11,9.11,0,0,1,6-9.4c3.9-1.19,7.16.17,9.89,4.14.45.66.94,1.29,1.34,2,5.58,9.65,14.92,14.77,24.39,19.33,8.61,4.15,18.09,6.06,27.35,8.46,3.34.86,5.74.37,8.33-2a137.13,137.13,0,0,1,31.46-21.77c31.09-15.41,63.6-17.82,97-9.65,21.69,5.3,40.52,16.15,57,31.11,2.74,2.5,5.4,3.44,9.06,2.28,5.46-1.73,11-3,16.58-4.55,2.09,2.32,5.22,3,7.58,4.92,2.61,2.07,6.47,2.7,7.63,6.47-4.57,1.67-9.09,3.54-13.74,5-19.94,6.11-40.56,9.15-60.89,13.49-19,4-37.85,8.29-54.51,19-3,1.91-6.07,1.48-9.07-.3a118,118,0,0,0-16.83-8.32c-19.59-7.79-40.26-11.28-60.83-15.1-17.55-3.27-35-6.87-51.61-13.64-5.66-2.31-10.79-5.68-16.83-9.1,4.46,13.48,10.51,24.88,19.71,34.74,11.46,12.29,24.94,21.46,39.94,28.75A197,197,0,0,1,548,365c15.19,13.78,27.07,30.14,36.4,48.36,2.94,5.74,5.56,11.65,8.5,17.84.47-1,.78-1.55,1-2.15,16.86-41,44.6-72.17,84.14-92.36,18.81-9.59,36.76-20.07,50.35-36.69a59.13,59.13,0,0,1,13.18,9.16c-5.17,6-10.25,12.09-16.32,17.25a2.56,2.56,0,0,0-.94,3.1c3.8,12.61,5.74,25.7,10.65,38a328.41,328.41,0,0,1,15.71,52c6.44,29.9,9,60,6.23,90.58a311.27,311.27,0,0,1-12.73,63c0,.32-.2.84-.08.92.43.28.52-.16.62-.47a5.76,5.76,0,0,0,.86-.77,190.8,190.8,0,0,0,35.19-80.7c2.08-11.32,2.76-22.75,3.17-34.23a7.7,7.7,0,0,1,8-7.72c4.3,0,7.49,2.88,8,7.33a28.81,28.81,0,0,1,.12,3.6c-1.17,52.88-19,99.32-55.32,137.85-11.74,12.47-22.36,25-29.1,40.9-3.87,9.09-9.25,17.54-13.93,26.26.75.49,1.14,0,1.6-.19,46.29-25.2,80.8-61.59,103-109.39,18.08-39,24.71-80,20.34-122.84-.83-8.1-2.34-16.09-3.63-24.12-1-6.51,4.14-11.45,10-9.71,4.13,1.24,5.51,4.52,6.28,8.45a253.65,253.65,0,0,1,1.54,91.15c-8.66,51.82-31.68,96.5-67.83,134.42-23.43,24.57-51.33,42.78-82.43,56.19-2,.86-3.89,1.76-5,3.74l-18.8,32.56c-.1.25-.19.51-.29.76l.9-.09c3.09-.83,6.21-1.56,9.27-2.5,47.81-14.68,88.43-40.86,122-77.72,47.74-52.37,71.88-114.3,73.36-185.09.42-20.08-1.73-39.95-5.42-59.67,2.13-.33,3.37,1.34,4.94,2.23,4.35,2.47,8.11,5.95,13,7.49,9.64,60.14,1.19,117.75-24.45,172.88a287.37,287.37,0,0,1-38.68,61c-1.83,2.22-2.18,3.13.49,5q29.77,21,59.25,42.38c2,1.46,2.89,1.13,4.52-.43,13.23-12.67,33.39-14.45,49.15-4.48a40.13,40.13,0,1,1-61.24,41,39.22,39.22,0,0,1,2.79-23.47c.92-2,1-3.13-1-4.56Q845,679.58,814.84,657.78c-2.43-1.77-3.31-.57-4.77,1-35.19,37.75-77.2,64.87-126.35,80.79a256.37,256.37,0,0,1-25.06,6.84,7.3,7.3,0,0,0-5.69,4.3c-4.33,9-8.87,17.85-13.61,27.32a272.29,272.29,0,0,0,32.43-6.18c59-14.88,109.61-44.44,152.35-87.64,5.76-5.83,5.75-5.84,12.23-1.23,7,5,7,5,.89,11.35q-71.1,72.78-170.3,95.45a297.94,297.94,0,0,1-31.52,5.47c-2.87.33-4.19,1.58-5.15,4.07-18.8,48.58-22.46,98-7.84,148.3,1,3.33,2,6.62,2.93,10a7.72,7.72,0,0,1-3.44,9.06,7.82,7.82,0,0,1-9-.18c-37.28-24.43-69.55-54-93.09-92.23a205.33,205.33,0,0,1-28.39-75.12,11.42,11.42,0,0,0-.46-1.92c-.07-.19-.4-.29-.69-.49a167.9,167.9,0,0,0-4,36.82c0,4.27-.19,8.53-.32,12.8a7.34,7.34,0,0,1-4.53,7c-3.06,1.4-6.14,1.22-8.58-1.11a113.24,113.24,0,0,1-8.12-8.83c-22.25-26.19-38-55.66-44.68-89.59A7.89,7.89,0,0,0,416,748.3c-48-29.09-85.91-68.14-115-116-1.52-2.51-1.49-3.73,1.19-5.12,3.65-1.89,7.41-6.19,10.55-5.71s4.54,6.29,6.74,9.74c24.3,38.11,54.84,70.11,92.69,95,1.22.8,2.51,1.5,3.77,2.25l.62.33Zm53.29,95.66c.54-4.45,1-8,1.39-11.57s.75-7.17,1.3-10.73c6.66-43.63,28.9-78.67,60.38-108.43,16.89-16,35.67-29.59,54.39-43.3,23.36-17.11,47.45-33.27,69.25-52.44,21.11-18.55,39.8-39.14,52.59-64.45,17.86-35.36,23-73,19.16-112.07-.18-1.86-.32-3.73-.55-5.58-.22-1.7-.54-3.39-1-6.15-.69,1.74-1,2.33-1.17,2.95-7.28,25.25-21.4,46.34-39.59,64.92-17.45,17.83-38,31.51-59.84,43.14-27.88,14.83-56.28,28.68-84.15,43.52-23.24,12.36-45.78,26-64,45.46-18.57,19.82-32.53,42.38-39.74,68.87-6.2,22.83-6.84,45.78-2.94,69C440.15,774.83,452.1,799.82,469.91,823.44ZM741.25,493.36a5.89,5.89,0,0,0-.68,1.06c-.28.89-.51,1.8-.71,2.7a184.15,184.15,0,0,1-14.46,40.2C711,566.78,689.52,590.47,665,611.7c-21.93,19-45.9,35.3-69.24,52.43-13.68,10-27.77,19.53-40.59,30.65-6.68,5.8-12.76,12.3-18.95,18.64a185.45,185.45,0,0,0-28.07,36.85,19.32,19.32,0,0,0-2.7,9.06A181.27,181.27,0,0,0,517.63,833c13.63,35.26,36.21,64.13,64.1,89.15a246.49,246.49,0,0,0,20.74,16.87c.29-.53.52-.76.49-.95-.16-1.05-.37-2.1-.6-3.14-7.22-33.89-7.44-67.73.27-101.61,7-31,19.62-59.7,34.36-87.61,16-30.32,34.38-59.3,51.13-89.2C705,626.35,720.33,595.46,730,562.05A289.4,289.4,0,0,0,741.25,493.36ZM470.6,372.63c.33,4.66.51,9.33,1,14,7.32,65.34,65.82,113.33,131.38,107.79a121.91,121.91,0,0,0,106-84.29,117.75,117.75,0,0,0,1.67-68.6c-.73-2.68-1.42-3.28-3.91-1.67A80.72,80.72,0,0,1,696,345.88c-3,1.34-3.08,3-2.46,5.9,3.84,17.59,1.54,33.61-11,47.72-15.22,17.12-33.5,22.65-55.43,16.79-7.77-2.07-7.71-2.12-11.43,5.15a218.51,218.51,0,0,0-14.77,38.39c-1.73,5.89-7,8.26-11.8,5.7-2.87-1.51-3.9-4.2-4.71-7.09a208.5,208.5,0,0,0-16.61-41.51c-1.34-2.53-2.6-3-5.23-2-9.69,3.55-19.67,4.85-29.87,2.67-26.69-5.71-44.16-29.8-42.08-57.53.31-4.27,3.88-9.08.87-12.56-2.86-3.3-7.79-4.81-11.81-7.11-.45-.26-.95-.46-1.38-.76-2.2-1.52-3.06-.19-3.46,1.71C472.64,351.67,470.62,362,470.6,372.63ZM606.45,511.74c-73.69.89-123-32.56-147.69-101.55-3.09,21.82-3.7,43.95-.24,66.16,5.23,33.62,18.33,63.64,40.16,89.8,1.25,1.51,2,2.69,4.41,1.12,25.21-16.62,52.34-29.77,79.25-43.29C590.38,519.94,598.39,515.83,606.45,511.74ZM669,277.51c-26.74-20.77-56-29.19-88.37-26-23.37,2.3-44.81,9.86-63.32,26.1,4.78.95,8.81,1.78,12.86,2.57,21,4.07,41.75,8.77,60.73,19.14,1.7.93,2.94.5,4.43-.29a160.8,160.8,0,0,1,32.36-12.49C640.86,282.85,654.38,280.48,669,277.51Zm-437.15,406a28,28,0,0,0,28.14-27.84,28.18,28.18,0,1,0-56.36-.33A28,28,0,0,0,231.8,683.53Zm681.11,61.71a23.38,23.38,0,1,0-23.21-23.58A23.48,23.48,0,0,0,912.91,745.24ZM642.25,402a28.67,28.67,0,0,0,7.7-.82c18.8-3.92,32.21-23.49,28.58-41.47-.64-3.13-1.33-4.4-4.4-2-2.73,2.1-5.77,3.81-8.6,5.79A152.11,152.11,0,0,0,631,396.83c-1.7,2.26-1.66,3.14,1.22,3.86A36.12,36.12,0,0,0,642.25,402Zm-85.65-2.56A161.27,161.27,0,0,0,510.21,357c-2.61-1.6-3.21.51-3.35,2-2,20.66,9.11,35.85,25.24,41.16A33.66,33.66,0,0,0,556.6,399.48Z" transform="translate(174.49 201.47)"/><path class="cls-2" d="M466.85,160.05a318.27,318.27,0,0,0-62.28,35.18q-109.11,80-131.1,213.56c-10.43,63.94-1.26,125.44,25.6,184.32,1.67,3.66,1.41,5.59-2.3,7.25a39.21,39.21,0,0,0-7.15,4.39c-2.06,1.52-2.94,1.21-4-1.13a343.79,343.79,0,0,1-20.68-56.25,355,355,0,0,1-11.29-69.83c-2.93-46.33,4-91.23,19.79-134.8,1.29-3.56.52-4.66-2.83-5.88-10-3.65-19.89-7.66-29.76-11.67-1.93-.78-2.86-.46-4.2,1.16-9.94,12-22.82,16.65-37.88,12.94-14.76-3.65-23.83-13.55-27.16-28.48-4.34-19.46,9.1-39.54,28.94-43.32,20.3-3.87,40.07,9.57,43.34,29.54.45,2.75,1.14,5.73.52,8.32-1,4.3,1.09,5.45,4.42,6.69q14.42,5.38,28.65,11.26c2.43,1,3.29.53,4.31-1.83A326,326,0,0,1,355.67,215a348.33,348.33,0,0,1,94-65.1,11.75,11.75,0,0,1,1.52-.5C456.68,152.53,462.49,155.23,466.85,160.05ZM224,303.69a16.35,16.35,0,0,0-16.1-16.47,16.58,16.58,0,0,0-16.67,16.4,16.8,16.8,0,0,0,16.2,16.56A16.5,16.5,0,0,0,224,303.69Z" transform="translate(174.49 201.47)"/><path class="cls-3" d="M546.08,182.6c-1.6-4.95-6.74-5.63-10.2-8.3-1.91-1.47-4-2.65-5.13-4.85,10.53-3,21.4-4.14,32.23-5.35a214.09,214.09,0,0,1,25.94-1.54c2.28,0,3-.74,3-3-.11-6.27-.08-12.55,0-18.82.21-21.88.42-43.77.77-65.65,0-2.85-.71-4.13-3.6-4.91a30.79,30.79,0,0,1-22.79-29.06C566,27.21,575,15.76,587.9,10.64,603.83,4.32,623.15,17,627.1,31c4.74,16.82-4,34-20.74,39-2.86.86-3.62,2.08-3.61,4.94,0,17.75.11,35.51-.26,53.25-.21,10.27-.31,20.54-.5,30.81,0,2.72.69,3.59,3.51,3.73,19.88,1,39.59,3.46,58.87,8.52,88.71,23.27,153.2,76.62,194.7,158,13,25.44,20.87,52.71,25.46,80.9a10.4,10.4,0,0,1,0,1.58c-4.89-1.54-8.65-5-13-7.49-1.57-.89-2.81-2.56-4.94-2.23a18.16,18.16,0,0,1-.81-2.24c-12.37-57.06-39.61-105.86-82.44-145.51-57.22-53-125.26-77.35-203.07-75C568.81,179.66,557.48,181.53,546.08,182.6ZM597.34,59.27a18.83,18.83,0,0,0,19.18-18.84,19.28,19.28,0,0,0-19-19.18c-10.33,0-19.3,8.79-19.31,19A19.19,19.19,0,0,0,597.34,59.27Z" transform="translate(174.49 201.47)"/><path class="cls-3" d="M915.67,438.14c-2.12-27.36-6.75-54.25-15.4-80.35A325.31,325.31,0,0,0,737.64,169a314.23,314.23,0,0,0-80.17-27.47,300.33,300.33,0,0,0-43.56-5.76c-2.68-.14-4.17-.8-3.76-4a41.09,41.09,0,0,0,0-8.8c-.32-3.33,1-4,4.08-3.78a335.06,335.06,0,0,1,79.27,14.52c52.51,16.48,98.61,43.62,137.76,82.37a312.48,312.48,0,0,1,32,36.84c2,2.65,3.2,2.44,5.64.8,10.83-7.31,21.73-14.52,32.77-21.51,2.81-1.77,3.15-3.16,2.07-6.31-4.28-12.38-1.66-23.62,7.66-32.71,9.53-9.29,23.14-11.44,34.47-5.88,12,5.9,18.41,15.84,18.06,29.2-.32,12.14-6.34,21.45-17.32,26.85C936,248.57,925.26,248,915.58,241c-3.77-2.71-6.08-2.35-9.57,0-10.1,6.85-20.37,13.44-30.73,19.88-3.18,2-3.56,3.41-1.36,6.61A325.87,325.87,0,0,1,929.61,412.6a301.91,301.91,0,0,1,2.63,34.27c-2-.35-3.57-1.63-5.34-2.46C923,442.59,920.13,438.93,915.67,438.14ZM933,237.27a21.76,21.76,0,0,0,21.83-21.84,21.85,21.85,0,1,0-43.7.07A21.68,21.68,0,0,0,933,237.27Z" transform="translate(174.49 201.47)"/><path class="cls-2" d="M922.06,1109.87c10,4.31,13,12.37,13.39,21.82.23,4.93.14,9.88,0,14.82-.32,16.23-10.21,26-26.52,26.26-8.94.12-17.89-.13-26.83.1-3.19.08-4-.85-4-4,.13-24.56.07-49.12.07-73.68,0-12.28.06-24.56,0-36.84,0-2.48.47-3.5,3.26-3.44,9.21.19,18.43,0,27.63.1,14.94.22,23,7.59,24.41,22.46a80.67,80.67,0,0,1,0,13.19C933,1098.76,930.29,1105.79,922.06,1109.87Zm-25,27.38v7.6c0,12,0,11.89,11.93,10.59,4.15-.45,6.55-2.58,7.42-6.6.91-4.24.4-8.52.42-12.77.08-14.12-2.43-16.52-16.54-16.2a7.12,7.12,0,0,1-.8,0c-2-.24-2.49.73-2.46,2.56C897.08,1127.37,897,1132.31,897,1137.25Zm0-50.49v8c0,8.23,0,8.23,8.4,7.81,5.31-.27,8.75-3,9.15-8.2a105.8,105.8,0,0,0,0-14.79c-.25-4-2.53-6.85-6.62-7.43-3-.43-6.13-.15-9.19-.23-1.85,0-1.74,1.19-1.74,2.42C897,1078.49,897,1082.63,897,1086.76Z" transform="translate(174.49 201.47)"/><path class="cls-2" d="M388.91,1116.12c-.45,10,1,22.31-.67,34.52-1.88,13.88-10.61,21.64-24.61,22.07-9.33.29-18.69-.07-28,.13-3.45.07-2.7-2.08-2.7-3.94q0-38.06,0-76.12c0-11.48.08-23-.05-34.45,0-2.59.65-3.42,3.31-3.37,8.55.16,17.1.06,25.64.06,16.76,0,26,8.7,27,25.57.32,5.59.16,11.21.18,16.82S388.91,1108.36,388.91,1116.12Zm-18.68-2.25v-1.6c0-8.54-.13-17.08,0-25.62.26-13.51-3.55-15.22-14.8-14.84-3.15.1-4,.87-4,4,.13,24.42.07,48.84.07,73.26,0,6.6,0,6.6,6.46,6.6,9.21,0,12.2-3,12.22-12.18C370.26,1133.62,370.24,1123.75,370.23,1113.87Z" transform="translate(174.49 201.47)"/><path class="cls-2" d="M814.91,1172.79c-9.28,0-9.29,0-10.64-9-.55-3.7-1.21-7.38-1.53-11.1-.19-2.31-.9-3.23-3.38-3.12-4.93.2-9.88.21-14.81,0-2.46-.11-3.23.84-3.52,3.06-.74,5.83-1.76,11.61-2.46,17.44-.26,2.17-1,2.93-3.24,2.82-3.86-.17-7.74-.14-11.61,0-2.28.08-3-.45-2.59-2.94q9.21-55.86,18.17-111.75c.4-2.46,1.36-3.26,3.86-3.19,6.27.19,12.55.18,18.82,0,2.51-.07,3.38.67,3.79,3.23q8.94,55.69,18.16,111.34c.47,2.83-.4,3.54-3,3.3C818.93,1172.64,816.92,1172.78,814.91,1172.79Zm-22.8-95.23-.63-.06c-2.42,17.3-4.74,34.62-7.32,51.9-.52,3.5.41,4.47,3.79,4.14a52.89,52.89,0,0,1,8.81,0c2.78.21,3.32-.68,2.88-3.39-1.42-8.69-2.52-17.43-3.76-26.15S793.37,1086.37,792.11,1077.56Z" transform="translate(174.49 201.47)"/><path class="cls-2" d="M579,1143.71c.74-5.45,1.51-10.91,2.24-16.37q4.54-34.52,9.06-69c.3-2.27.9-3.59,3.66-3.37a72.1,72.1,0,0,0,10.8,0c3-.22,3.19,1.13,2.82,3.53-2.52,16.21-5,32.43-7.41,48.65-3.12,20.58-6.29,41.15-9.29,61.74-.42,2.85-1.11,4.17-4.36,4-5.86-.31-11.75-.25-17.61,0-2.77.11-3.55-.85-3.94-3.48-3.53-23.88-7.22-47.74-10.85-71.61-2-13.19-3.88-26.4-6-39.57-.4-2.46-.14-3.35,2.56-3.23,4.26.19,8.55.16,12.81,0,2.29-.08,3.19.52,3.51,3,3,23.68,6.23,47.35,9.38,71,.65,4.88,1.28,9.77,1.92,14.65Z" transform="translate(174.49 201.47)"/><path class="cls-2" d="M915.67,438.14c4.46.79,7.33,4.45,11.23,6.27,1.77.83,3.34,2.11,5.34,2.46,2.34,81-21.19,153.8-69.94,218.5-1.69,2.24-2.77,3-5.15.89a57.73,57.73,0,0,0-8.11-5.84c-2.15-1.33-2.16-2.23-.6-4.23a313.07,313.07,0,0,0,34.25-54.42c24.52-49.57,35.15-102.1,33.4-157.25C916,442.39,915.81,440.27,915.67,438.14Z" transform="translate(174.49 201.47)"/><path class="cls-2" d="M446.35,1113.74c0-18.41.06-36.82-.06-55.24,0-2.79.73-3.58,3.54-3.55q21.82.21,43.64,0c2.83,0,3.79.81,3.51,3.6-.43,4.33,1.87,10.15-.91,12.63-2.41,2.16-8.1.68-12.35.72-5.2.06-10.41.1-15.61,0-2.11-.05-3.1.35-3.06,2.79.14,8.41.11,16.82,0,25.22,0,2.11.67,2.77,2.75,2.74,6.4-.1,12.81.08,19.21-.09,2.54-.07,3.63.5,3.47,3.26-.21,3.72-.16,7.47,0,11.2.1,2.33-.77,3-3,2.91-6.4-.14-12.81,0-19.21-.1-2.37,0-3.26.52-3.22,3.09q.22,14.8,0,29.62c0,2.54.87,3.13,3.23,3.1,8.41-.12,16.82.08,25.22-.12,2.92-.07,3.67.92,3.51,3.64a102.39,102.39,0,0,0,0,10.8c.12,2.36-.8,2.89-3,2.88-14.81-.09-29.62-.13-44.43,0-2.86,0-3.24-1-3.23-3.46C446.39,1150.84,446.36,1132.29,446.35,1113.74Z" transform="translate(174.49 201.47)"/><path class="cls-2" d="M661.89,1113.63c0-18.28.05-36.57-.06-54.85,0-2.85.49-4.11,3.67-3.84a64.45,64.45,0,0,0,11.2,0c3.6-.34,4,1.19,4,4.3-.11,30.3-.07,60.59-.07,90.89a16,16,0,0,1,0,2.4c-.36,2.57.87,3.12,3.21,3.09,8-.12,16,0,24-.1,2.39,0,3.36.54,3.22,3.09a99.63,99.63,0,0,0,0,11.2c.15,2.64-1,3-3.27,3-14.15-.09-28.29-.12-42.44,0-2.82,0-3.57-.78-3.55-3.56C661.94,1150.74,661.89,1132.18,661.89,1113.63Z" transform="translate(174.49 201.47)"/><path class="cls-2" d="M255.4,1113.6c0-18.15.08-36.29-.07-54.43,0-3.19.56-4.58,4.08-4.26a61.72,61.72,0,0,0,10.79,0c3.23-.26,3.95.9,3.94,4-.11,33.49-.07,67-.08,100.45,0,3.21-.17,6.42.06,9.61.2,2.84-.45,4.13-3.66,3.88a78.66,78.66,0,0,0-11.59,0c-2.91.2-3.54-.88-3.53-3.6C255.45,1150.68,255.4,1132.14,255.4,1113.6Z" transform="translate(174.49 201.47)"/><path class="cls-3" d="M466.85,160.05c-4.36-4.82-10.17-7.52-15.66-10.69,12.79-6.7,26.39-11.38,40.1-15.69,29.05-9.13,58.91-13.57,89.24-15.3,2.91-.16,4.19.45,3.89,3.63a73.19,73.19,0,0,0-.14,9.6c.11,2.46-.46,3.47-3.25,3.57a319.13,319.13,0,0,0-112.64,24.58A7.12,7.12,0,0,1,466.85,160.05Z" transform="translate(174.49 201.47)"/><path class="cls-3" d="M831.38,159.26c-10.42,3.06-14.72-3-19.65-11.08s-4.53-13.91,0-22.15c4.93-9,10.36-12,20.45-11.72,8.77.26,14.1,2,18.27,10.42,6.38,12.81,6.42,12.12.06,24.72-4.11,8.14-9.24,11.49-17.94,9.82A6,6,0,0,0,831.38,159.26Z" transform="translate(174.49 201.47)"/><path class="cls-3" d="M734.49,72.81c6.89-2.31,10.48,2.29,14.45,8.75,4.21,6.86,4.41,11.82.1,18.81-4,6.54-7.9,9.33-15.82,9.15-7.61-.17-12-2-15.93-9s-4.87-11.9-.07-18.77C723.21,73.22,722.62,72.81,734.49,72.81Z" transform="translate(174.49 201.47)"/><path class="cls-3" d="M806.38,90.92c-6.26,2.26-9-2.49-12.57-7.92-3.64-5.59-2.79-9.49.13-14.93,3.24-6,7.07-7.72,13.72-7.72S818,62.3,821.25,68.24c3,5.44,4.21,9.72-.12,14.58a1.9,1.9,0,0,0-.2.34C816.55,90.91,816.55,90.91,806.38,90.92Z" transform="translate(174.49 201.47)"/><path class="cls-3" d="M854.7,59.3c1.91.45,4.31-.93,5.67,1C862.25,63.06,865,66.08,865,69s-2.58,6-4.57,8.65c-1.76,2.34-4.74.89-7.16,1.05-1.61.11-3.64.83-4.77-1.05-1.71-2.85-4.51-5.81-4.48-8.7s2.73-5.94,4.67-8.62C850.14,58.29,852.7,59.79,854.7,59.3Z" transform="translate(174.49 201.47)"/><path class="cls-1" d="M546.08,182.6c11.4-1.07,22.73-2.94,34.21-3.29,77.81-2.38,145.85,22,203.07,75,42.83,39.65,70.07,88.45,82.44,145.51a18.16,18.16,0,0,0,.81,2.24c3.69,19.72,5.84,39.59,5.42,59.67-1.48,70.79-25.62,132.72-73.36,185.09-33.59,36.86-74.21,63-122,77.72-3.06.94-6.18,1.67-9.27,2.5l-.61-.67,18.8-32.56c1.15-2,3-2.88,5-3.74,31.1-13.41,59-31.62,82.43-56.19,36.15-37.92,59.17-82.6,67.83-134.42a253.65,253.65,0,0,0-1.54-91.15c-.77-3.93-2.15-7.21-6.28-8.45-5.85-1.74-11,3.2-10,9.71,1.29,8,2.8,16,3.63,24.12,4.37,42.81-2.26,83.85-20.34,122.84-22.16,47.8-56.67,84.19-103,109.39-.46.24-.85.68-1.6.19,4.68-8.72,10.06-17.17,13.93-26.26,6.74-15.88,17.36-28.43,29.1-40.9,36.28-38.53,54.15-85,55.32-137.85a28.81,28.81,0,0,0-.12-3.6c-.5-4.45-3.69-7.36-8-7.33a7.7,7.7,0,0,0-8,7.72c-.41,11.48-1.09,22.91-3.17,34.23a190.8,190.8,0,0,1-35.19,80.7,5.76,5.76,0,0,1-.86.77,2.31,2.31,0,0,0-.54-.45,311.27,311.27,0,0,0,12.73-63c2.75-30.55.21-60.68-6.23-90.58a328.41,328.41,0,0,0-15.71-52c-4.91-12.35-6.85-25.44-10.65-38a2.56,2.56,0,0,1,.94-3.1c6.07-5.16,11.15-11.25,16.32-17.25,14.94-18.22,20.8-39.53,21.15-62.64.06-3.86-1.89-7.05-6-8s-7.35.24-9.58,4c-4.52,7.51-11,12.89-18.46,17.33-5.62,3.37-11.84,5.36-17.74,8.08-5.53,1.5-11.12,2.82-16.58,4.55-3.66,1.16-6.32.22-9.06-2.28-16.48-15-35.31-25.81-57-31.11-33.43-8.17-65.94-5.76-97,9.65a137.13,137.13,0,0,0-31.46,21.77c-2.59,2.35-5,2.84-8.33,2-9.26-2.4-18.74-4.31-27.35-8.46-9.47-4.56-18.81-9.68-24.39-19.33-.4-.69-.89-1.32-1.34-2-2.73-4-6-5.33-9.89-4.14a9.11,9.11,0,0,0-6,9.4c.89,10,1.67,20,4.68,29.7a100.37,100.37,0,0,0,31.72,47.61c2.31,2,2.08,3.83,1.59,6.3-3.53,17.55-9.59,34.43-13.63,51.82-10.12,43.58-10.53,87,3.55,130a189.56,189.56,0,0,0,34.15,61.6c1.88,2.28,2.2,3.51-.32,5.64-6.22,5.25-12.18,10.81-18.1,16.39-1.79,1.68-2.89,1.89-4.79,0Q412.08,549.16,403.23,481c-.94-7.29-1.19-14.62-1.48-22-.23-5.87-3.44-9.1-8.54-8.9-4.72.18-7.74,3.64-7.7,9.32a205.16,205.16,0,0,0,33.7,112.25,198.72,198.72,0,0,0,31.87,37.91c1.61,1.5,2.09,2.5.62,4.58-4.24,6-8.18,12.19-12.15,18.36-1.3,2-1.95,2.16-4.15.5-7.62-5.71-13.66-13-19.85-20a219.89,219.89,0,0,1-31.84-46.93c-18.69-37.23-27.45-76.63-25.79-118.28a212.45,212.45,0,0,1,4.29-35.32,24.84,24.84,0,0,0,.54-5.16,7.56,7.56,0,0,0-6.61-7.77,7.79,7.79,0,0,0-9,5.55,137,137,0,0,0-3.8,21.25c-5,41.4-.47,81.69,14.21,120.79A248.86,248.86,0,0,0,399,618.66a238.23,238.23,0,0,0,28.48,29.13c2.07,1.78,2.59,3.35,1.57,6.09-2.54,6.8-4.71,13.75-6.79,20.71-.9,3-1.65,3.56-4.34,1.37a298.88,298.88,0,0,1-52.38-55.44,270,270,0,0,1-28.35-49.11,257.84,257.84,0,0,1-17.77-55.26c-11.3-56.87-6.3-112.18,15.85-165.9A255.41,255.41,0,0,1,362,300.8c29.32-41.81,66.73-74.22,113.18-95.88a273.52,273.52,0,0,1,69.39-21.83A10.75,10.75,0,0,0,546.08,182.6Zm261,177.18a16.82,16.82,0,0,0,.69,2.76c2.07,5.32,4.11,10.66,6.39,15.89,1.95,4.49,6.26,6.24,10.48,4.57s6.16-5.82,4.44-10.48c-2.11-5.73-4.43-11.39-6.87-17-1.6-3.67-4.68-5-8.45-4.22C809.62,352.23,807.16,355.08,807.12,359.78Zm-428.44-.58a7.9,7.9,0,0,0-6.09-8,7.53,7.53,0,0,0-9.06,4,126.08,126.08,0,0,0-6.88,17c-1.43,4.4.46,8.23,4.77,10,4.14,1.66,8.14.35,10.06-3.74,2.26-4.8,4.13-9.78,6.14-14.7A9.78,9.78,0,0,0,378.68,359.2Zm418.9,66c-.39-2.08-.81-5.26-1.64-8.34a7.94,7.94,0,0,0-8.91-5.74c-4.51.87-7.31,4.34-6.83,8.86a59,59,0,0,0,1.57,8.65,7.9,7.9,0,0,0,8.72,6C794.61,434.18,797.5,430.77,797.58,425.21Zm-409.51-.64c0,5.14,2.45,8.67,6,9.48,4.27,1,8.07-.71,9.57-4.56a30,30,0,0,0,2-10.55c.05-4-3-7.23-7.14-7.91a7.86,7.86,0,0,0-8.66,5.54C389,419.49,388.51,422.54,388.07,424.57Z" transform="translate(174.49 201.47)"/><path class="cls-1" d="M469.91,823.44c-17.81-23.62-29.76-48.61-34.5-76.86-3.9-23.22-3.26-46.17,2.94-69,7.21-26.49,21.17-49.05,39.74-68.87,18.21-19.45,40.75-33.1,64-45.46,27.87-14.84,56.27-28.69,84.15-43.52,21.85-11.63,42.39-25.31,59.84-43.14,18.19-18.58,32.31-39.67,39.59-64.92.18-.62.48-1.21,1.17-2.95.45,2.76.77,4.45,1,6.15.23,1.85.37,3.72.55,5.58,3.87,39.11-1.3,76.71-19.16,112.07-12.79,25.31-31.48,45.9-52.59,64.45-21.8,19.17-45.89,35.33-69.25,52.44-18.72,13.71-37.5,27.35-54.39,43.3-31.48,29.76-53.72,64.8-60.38,108.43-.55,3.56-.87,7.15-1.3,10.73S470.45,819,469.91,823.44Z" transform="translate(174.49 201.47)"/><path class="cls-1" d="M741.25,493.36A289.4,289.4,0,0,1,730,562.05c-9.67,33.41-25,64.3-41.88,94.49-16.75,29.9-35.11,58.88-51.13,89.2-14.74,27.91-27.31,56.65-34.36,87.61-7.71,33.88-7.49,67.72-.27,101.61.23,1,.44,2.09.6,3.14,0,.19-.2.42-.49.95a246.49,246.49,0,0,1-20.74-16.87c-27.89-25-50.47-53.89-64.1-89.15a181.27,181.27,0,0,1-12.17-73.7,19.32,19.32,0,0,1,2.7-9.06,185.45,185.45,0,0,1,28.07-36.85c6.19-6.34,12.27-12.84,18.95-18.64,12.82-11.12,26.91-20.62,40.59-30.65C619.11,647,643.08,630.69,665,611.7c24.51-21.23,46-44.92,60.39-74.38a184.15,184.15,0,0,0,14.46-40.2c.2-.9.43-1.81.71-2.7A5.89,5.89,0,0,1,741.25,493.36Z" transform="translate(174.49 201.47)"/><path class="cls-1" d="M728.46,300c-13.59,16.62-31.54,27.1-50.35,36.69-39.54,20.19-67.28,51.38-84.14,92.36-.25.6-.56,1.18-1,2.15-2.94-6.19-5.56-12.1-8.5-17.84-9.33-18.22-21.21-34.58-36.4-48.36a197,197,0,0,0-46.46-31.25c-15-7.29-28.48-16.46-39.94-28.75-9.2-9.86-15.25-21.26-19.71-34.74,6,3.42,11.17,6.79,16.83,9.1,16.62,6.77,34.06,10.37,51.61,13.64,20.57,3.82,41.24,7.31,60.83,15.1A118,118,0,0,1,588,316.45c3,1.78,6.11,2.21,9.07.3,16.66-10.7,35.52-14.95,54.51-19,20.33-4.34,40.95-7.38,60.89-13.49,4.65-1.43,9.17-3.3,13.74-5,5.91-1.53,10.61-5.5,16.09-7.89l0,0c.46,1.67-.33,3.12-.84,4.61C738.49,284.73,733.58,292.44,728.46,300Z" transform="translate(174.49 201.47)"/><path class="cls-1" d="M470.6,372.63c0-10.62,2-21,4.19-31.27.4-1.9,1.26-3.23,3.46-1.71.43.3.93.5,1.38.76,4,2.3,8.95,3.81,11.81,7.11,3,3.48-.56,8.29-.87,12.56-2.08,27.73,15.39,51.82,42.08,57.53,10.2,2.18,20.18.88,29.87-2.67,2.63-1,3.89-.54,5.23,2a208.5,208.5,0,0,1,16.61,41.51c.81,2.89,1.84,5.58,4.71,7.09,4.82,2.56,10.07.19,11.8-5.7a218.51,218.51,0,0,1,14.77-38.39c3.72-7.27,3.66-7.22,11.43-5.15,21.93,5.86,40.21.33,55.43-16.79,12.54-14.11,14.84-30.13,11-47.72-.62-2.86-.52-4.56,2.46-5.9a80.72,80.72,0,0,0,10.81-6.06c2.49-1.61,3.18-1,3.91,1.67a117.75,117.75,0,0,1-1.67,68.6,121.91,121.91,0,0,1-106,84.29c-65.56,5.54-124.06-42.45-131.38-107.79C471.11,382,470.93,377.29,470.6,372.63Z" transform="translate(174.49 201.47)"/><path class="cls-1" d="M606.45,511.74c-8.06,4.09-16.07,8.2-24.11,12.24-26.91,13.52-54,26.67-79.25,43.29-2.39,1.57-3.16.39-4.41-1.12C476.85,540,463.75,510,458.52,476.35c-3.46-22.21-2.85-44.34.24-66.16C483.48,479.18,532.76,512.63,606.45,511.74Z" transform="translate(174.49 201.47)"/><path class="cls-1" d="M669,277.51c-14.57,3-28.09,5.34-41.31,9A160.8,160.8,0,0,0,595.28,299c-1.49.79-2.73,1.22-4.43.29-19-10.37-39.76-15.07-60.73-19.14-4-.79-8.08-1.62-12.86-2.57,18.51-16.24,40-23.8,63.32-26.1C613,248.32,642.21,256.74,669,277.51Z" transform="translate(174.49 201.47)"/><path class="cls-1" d="M231.8,683.53a28,28,0,0,1-28.22-28.17,28.18,28.18,0,1,1,56.36.33A28,28,0,0,1,231.8,683.53Zm12-28.1a12.09,12.09,0,1,0-12.1,12.15A11.93,11.93,0,0,0,243.85,655.43Z" transform="translate(174.49 201.47)"/><path class="cls-1" d="M912.91,745.24a23.38,23.38,0,0,1,.07-46.76,23.38,23.38,0,1,1-.07,46.76Z" transform="translate(174.49 201.47)"/><path class="cls-3" d="M728.46,300c5.12-7.59,10-15.3,13-24,.51-1.49,1.3-2.94.84-4.61l.38-.29c-.08,0-.21,0-.24,0a1,1,0,0,0-.12.31c-5.48,2.39-10.18,6.36-16.09,7.89-1.16-3.77-5-4.4-7.63-6.47-2.36-1.88-5.49-2.6-7.58-4.92,5.9-2.72,12.12-4.71,17.74-8.08,7.43-4.44,13.94-9.82,18.46-17.33,2.23-3.72,5.57-4.89,9.58-4s6,4.15,6,8c-.35,23.11-6.21,44.42-21.15,62.64A59.13,59.13,0,0,0,728.46,300Z" transform="translate(174.49 201.47)"/><path class="cls-1" d="M642.25,402a36.12,36.12,0,0,1-10.07-1.35c-2.88-.72-2.92-1.6-1.22-3.86a152.11,152.11,0,0,1,34.57-33.33c2.83-2,5.87-3.69,8.6-5.79,3.07-2.36,3.76-1.09,4.4,2,3.63,18-9.78,37.55-28.58,41.47A28.67,28.67,0,0,1,642.25,402Z" transform="translate(174.49 201.47)"/><path class="cls-1" d="M556.6,399.48a33.66,33.66,0,0,1-24.5.72C516,394.89,504.89,379.7,506.86,359c.14-1.52.74-3.63,3.35-2A161.27,161.27,0,0,1,556.6,399.48Z" transform="translate(174.49 201.47)"/><path class="cls-1" d="M667.38,727l-.9.09c.1-.25.19-.51.29-.76C667,726.56,667.18,726.78,667.38,727Z" transform="translate(174.49 201.47)"/><path class="cls-1" d="M744.78,573.56c-.1.31-.19.75-.62.47-.12-.08.05-.6.08-.92A2.31,2.31,0,0,1,744.78,573.56Z" transform="translate(174.49 201.47)"/><path class="cls-1" d="M416.62,727.78c0,.33-.05.66-.08,1l-.62-.33Z" transform="translate(174.49 201.47)"/><path class="cls-1" d="M224,303.69a16.5,16.5,0,0,1-16.57,16.49,16.8,16.8,0,0,1-16.2-16.56,16.58,16.58,0,0,1,16.67-16.4A16.35,16.35,0,0,1,224,303.69Z" transform="translate(174.49 201.47)"/><path class="cls-1" d="M597.34,59.27a19.19,19.19,0,0,1-19.14-19c0-10.21,9-19,19.31-19a19.28,19.28,0,0,1,19,19.18A18.83,18.83,0,0,1,597.34,59.27Z" transform="translate(174.49 201.47)"/><path class="cls-1" d="M933,237.27a21.68,21.68,0,0,1-21.87-21.77A21.85,21.85,0,1,1,933,237.27Zm8.49-21.39c-.35-1.52-1.77-1.19-2.82-1-4,.59-5.77-.79-5-4.93a7,7,0,0,0-.06-2,1.39,1.39,0,0,0-2.72.09,10.55,10.55,0,0,0,0,2.38c.53,3.44-.71,5-4.32,4.43a10.54,10.54,0,0,0-2.38,0,1.33,1.33,0,0,0,0,2.64,8.84,8.84,0,0,0,2,0c4-.7,5.32,1.06,4.67,4.81a5.92,5.92,0,0,0,0,1.19c0,.93,0,2,1.29,2.06,1.6.1,1.74-1.12,1.56-2.16-.9-5,1.16-6.78,6-5.9C940.66,217.7,941.53,217.4,941.51,215.88Z" transform="translate(174.49 201.47)"/><path class="cls-1" d="M897,1137.25c0-4.94.06-9.88,0-14.82,0-1.83.48-2.8,2.46-2.56a7.12,7.12,0,0,0,.8,0c14.11-.32,16.62,2.08,16.54,16.2,0,4.25.49,8.53-.42,12.77-.87,4-3.27,6.15-7.42,6.6-11.94,1.3-11.93,1.36-11.93-10.59Z" transform="translate(174.49 201.47)"/><path class="cls-1" d="M897,1086.76c0-4.13,0-8.27,0-12.41,0-1.23-.11-2.47,1.74-2.42,3.06.08,6.18-.2,9.19.23,4.09.58,6.37,3.46,6.62,7.43a105.8,105.8,0,0,1,0,14.79c-.4,5.16-3.84,7.93-9.15,8.2-8.4.42-8.4.42-8.4-7.81Z" transform="translate(174.49 201.47)"/><path class="cls-1" d="M370.24,1113.87c0,9.88,0,19.75,0,29.63,0,9.23-3,12.18-12.22,12.18-6.46,0-6.46,0-6.46-6.6,0-24.42.06-48.84-.07-73.26,0-3.14.83-3.91,4-4,11.25-.38,15.06,1.33,14.8,14.84-.16,8.54,0,17.08,0,25.62C370.23,1112.8,370.23,1113.34,370.24,1113.87Z" transform="translate(174.49 201.47)"/><path class="cls-1" d="M792.11,1077.56q1.89,13.21,3.77,26.43c1.24,8.72,2.34,17.46,3.76,26.15.44,2.71-.1,3.6-2.88,3.39a52.89,52.89,0,0,0-8.81,0c-3.38.33-4.31-.64-3.79-4.14,2.58-17.28,4.9-34.6,7.32-51.9Z" transform="translate(174.49 201.47)"/><path class="cls-2" d="M807.12,359.78c0-4.7,2.5-7.55,6.68-8.47,3.77-.83,6.85.55,8.45,4.22,2.44,5.6,4.76,11.26,6.87,17,1.72,4.66-.19,8.8-4.44,10.48s-8.53-.08-10.48-4.57c-2.28-5.23-4.32-10.57-6.39-15.89A16.82,16.82,0,0,1,807.12,359.78Z" transform="translate(174.49 201.47)"/><path class="cls-2" d="M378.68,359.2a9.78,9.78,0,0,1-1.06,4.44c-2,4.92-3.88,9.9-6.14,14.7-1.92,4.09-5.92,5.4-10.06,3.74-4.31-1.73-6.2-5.56-4.77-10a126.08,126.08,0,0,1,6.88-17,7.53,7.53,0,0,1,9.06-4A7.9,7.9,0,0,1,378.68,359.2Z" transform="translate(174.49 201.47)"/><path class="cls-2" d="M797.58,425.21c-.08,5.56-3,9-7.09,9.45a7.9,7.9,0,0,1-8.72-6A59,59,0,0,1,780.2,420c-.48-4.52,2.32-8,6.83-8.86a7.94,7.94,0,0,1,8.91,5.74C796.77,420,797.19,423.13,797.58,425.21Z" transform="translate(174.49 201.47)"/><path class="cls-2" d="M388.07,424.57c.44-2,.89-5.08,1.75-8a7.86,7.86,0,0,1,8.66-5.54c4.11.68,7.19,3.9,7.14,7.91a30,30,0,0,1-2,10.55c-1.5,3.85-5.3,5.54-9.57,4.56C390.52,433.24,388,429.71,388.07,424.57Z" transform="translate(174.49 201.47)"/><path class="cls-2" d="M243.85,655.43a12.09,12.09,0,1,1-12.08-12.18A11.89,11.89,0,0,1,243.85,655.43Z" transform="translate(174.49 201.47)"/><path class="cls-1" d="M742.33,271.41a1,1,0,0,1,.12-.31s.16,0,.24,0l-.38.29Z" transform="translate(174.49 201.47)"/><path class="cls-3" d="M941.51,215.88c0,1.52-.85,1.82-1.85,1.64-4.84-.88-6.9.93-6,5.9.18,1,0,2.26-1.56,2.16-1.32-.09-1.25-1.13-1.29-2.06a5.92,5.92,0,0,1,0-1.19c.65-3.75-.72-5.51-4.67-4.81a8.84,8.84,0,0,1-2,0,1.33,1.33,0,0,1,0-2.64,10.54,10.54,0,0,1,2.38,0c3.61.61,4.85-1,4.32-4.43a10.55,10.55,0,0,1,0-2.38,1.39,1.39,0,0,1,2.72-.09,7,7,0,0,1,.06,2c-.74,4.14,1.08,5.52,5,4.93C939.74,214.69,941.16,214.36,941.51,215.88Z" transform="translate(174.49 201.47)"/></svg>