<?xml version="1.0" standalone="no"?>
<!DOCTYPE svg PUBLIC "-//W3C//DTD SVG 20010904//EN"
 "http://www.w3.org/TR/2001/REC-SVG-20010904/DTD/svg10.dtd">
<svg version="1.0" xmlns="http://www.w3.org/2000/svg"
 width="3776.000000pt" height="3776.000000pt" viewBox="0 0 3776.000000 3776.000000"
 preserveAspectRatio="xMidYMid meet">
<metadata>
Created by potrace 1.16, written by Peter Selinger 2001-2019
</metadata>
<g transform="translate(0.000000,3776.000000) scale(0.100000,-0.100000)"
fill="#000000" stroke="none">
<path d="M17410 29813 c-1547 -268 -2899 -919 -4110 -1979 -172 -151 -505
-478 -670 -659 -575 -632 -1051 -1359 -1396 -2133 -36 -81 -69 -150 -72 -154
-4 -3 -205 72 -447 167 l-439 172 3 129 c4 211 -40 370 -150 534 -159 238
-416 382 -704 397 -437 22 -823 -262 -927 -682 -31 -126 -31 -314 0 -438 79
-318 309 -556 629 -654 78 -23 106 -26 238 -27 164 -1 239 12 367 65 132 54
294 179 364 280 15 21 31 39 37 39 9 0 878 -338 884 -344 1 -1 -25 -80 -58
-176 -261 -755 -374 -1304 -451 -2190 -27 -300 -32 -813 -10 -1015 7 -66 19
-199 28 -295 84 -955 335 -1906 724 -2743 45 -98 71 -142 82 -141 11 1 312
179 336 199 1 1 -33 83 -77 181 -278 627 -469 1249 -580 1894 -225 1299 -122
2612 304 3887 819 2446 2793 4345 5280 5078 407 120 842 208 1334 270 43 6 51
10 40 20 -8 6 -106 70 -219 140 -113 70 -224 141 -247 157 -23 15 -48 27 -55
27 -7 -1 -24 -4 -38 -6z m-7905 -4050 c184 -64 300 -257 266 -442 -32 -173
-163 -301 -340 -332 -86 -16 -190 8 -270 62 -70 47 -111 95 -149 176 -24 51
-27 70 -27 158 0 92 3 106 32 168 87 184 300 276 488 210z"/>
<path d="M18810 28907 l0 -53 -262 -12 c-1656 -76 -3114 -635 -4358 -1672
-1111 -927 -1887 -2095 -2305 -3470 -182 -599 -277 -1174 -307 -1851 -48
-1105 207 -2351 687 -3356 36 -75 62 -140 58 -143 -5 -4 -242 -151 -528 -327
-286 -176 -635 -391 -775 -478 -140 -86 -261 -160 -268 -162 -7 -3 -47 28 -90
69 -313 305 -764 372 -1152 172 -186 -96 -330 -244 -425 -439 -341 -693 207
-1486 977 -1414 332 31 624 226 777 519 75 144 102 246 108 413 6 160 -6 254
-48 372 -15 44 -25 83 -21 86 4 3 241 150 527 326 286 176 635 391 775 478
140 86 258 159 262 161 4 3 24 -26 44 -63 134 -242 358 -584 545 -832 383
-510 792 -932 1272 -1312 83 -66 170 -135 191 -153 l40 -32 -15 -149 c-8 -83
-14 -258 -14 -392 0 -134 -1 -243 -3 -243 -1 0 -75 49 -165 109 -270 180 -520
373 -782 602 -167 146 -518 497 -664 664 -318 364 -621 777 -850 1160 -40 66
-74 121 -75 123 -2 2 -81 -45 -175 -103 l-172 -107 27 -46 c226 -390 602 -907
948 -1302 134 -153 481 -505 636 -644 359 -324 746 -617 1138 -863 92 -57 175
-112 185 -122 11 -11 30 -73 52 -171 145 -646 422 -1245 838 -1810 168 -228
404 -501 462 -535 107 -63 232 -30 286 76 18 36 20 71 29 397 9 334 16 442 41
602 19 127 52 295 58 303 4 4 20 -62 35 -145 145 -787 477 -1527 998 -2223
472 -632 1113 -1227 1866 -1732 152 -102 154 -103 213 -103 93 0 160 42 194
122 24 58 18 103 -31 264 -106 348 -191 760 -231 1124 -25 236 -26 817 0 1050
47 429 141 850 284 1279 89 266 132 371 156 381 12 5 119 23 237 40 1516 218
2963 865 4145 1854 284 238 809 747 789 765 -5 4 -80 59 -167 120 l-158 113
-227 -223 c-319 -314 -538 -504 -857 -742 -170 -127 -494 -345 -660 -444 -751
-450 -1564 -770 -2405 -948 -136 -29 -513 -94 -518 -90 -2 2 80 170 182 373
185 370 186 371 223 382 21 5 120 30 220 55 1309 323 2543 1043 3476 2027
l139 146 376 -270 c208 -148 567 -406 798 -571 l422 -302 -23 -45 c-72 -142
-106 -354 -86 -526 28 -240 125 -439 293 -600 137 -131 267 -204 447 -251 122
-32 321 -36 446 -9 186 40 351 131 491 270 140 141 227 302 270 501 20 92 20
298 0 390 -84 391 -377 687 -761 771 -126 27 -324 23 -446 -9 -169 -44 -315
-123 -424 -228 l-61 -59 -260 187 c-142 102 -495 355 -784 561 -289 206 -527
377 -529 378 -2 2 52 72 118 156 879 1105 1411 2425 1546 3833 67 710 32 1384
-111 2105 -122 616 -311 1195 -558 1706 l-73 150 -367 232 c-202 128 -369 232
-371 232 -2 0 34 -60 80 -132 506 -809 847 -1770 969 -2733 40 -312 50 -487
50 -870 0 -394 -11 -568 -54 -905 -271 -2092 -1507 -3945 -3355 -5030 -335
-196 -841 -425 -1213 -549 -158 -52 -412 -125 -417 -119 -6 6 481 829 505 852
14 14 111 63 215 111 533 241 1018 545 1470 921 152 127 466 432 605 589 508
573 932 1285 1210 2030 157 424 275 938 329 1445 44 407 42 911 -5 1350 -16
145 -76 523 -94 591 -38 139 -196 198 -316 117 -40 -27 -84 -108 -84 -156 0
-18 13 -104 29 -190 66 -354 94 -666 95 -1052 0 -316 -11 -487 -50 -780 -181
-1362 -860 -2634 -1899 -3554 -227 -201 -512 -415 -755 -565 -153 -96 -380
-225 -385 -219 -2 2 19 44 46 93 132 234 295 546 436 830 l154 312 136 124
c443 403 835 922 1102 1459 336 675 516 1380 538 2107 7 244 1 276 -67 337
-92 83 -256 53 -309 -56 -18 -39 -22 -74 -31 -269 -15 -325 -37 -506 -96 -788
-117 -566 -352 -1130 -669 -1611 -99 -150 -196 -283 -201 -277 -3 2 20 88 50
190 333 1129 382 2244 150 3432 -20 99 -44 216 -55 260 -11 44 -26 136 -34
205 -30 250 -38 300 -46 300 -4 0 -11 -16 -15 -35 -7 -41 -20 -38 -29 8 -14
64 -159 498 -246 733 -101 275 -141 410 -170 574 -12 63 -38 175 -59 248 l-38
133 41 37 c375 328 635 707 776 1127 40 120 106 385 98 391 -1 1 -118 74 -259
163 l-258 163 -72 -60 c-178 -145 -354 -239 -628 -333 -144 -50 -474 -139
-514 -139 -40 0 -81 25 -180 113 -498 443 -1093 711 -1776 803 -165 22 -608
30 -778 15 -485 -44 -949 -192 -1358 -432 -192 -112 -336 -218 -630 -461 -58
-48 -73 -48 -271 2 -346 88 -638 208 -847 347 -121 81 -249 206 -331 325 -75
109 -117 138 -197 138 -73 0 -114 -17 -155 -63 -50 -57 -57 -92 -50 -267 28
-700 317 -1304 858 -1790 l86 -77 -33 -124 c-19 -68 -47 -191 -64 -274 -42
-201 -53 -244 -110 -423 -162 -501 -264 -1013 -312 -1562 -16 -187 -16 -763 1
-940 104 -1108 442 -1956 1108 -2776 l34 -42 -264 -238 c-144 -132 -272 -247
-284 -257 -21 -19 -22 -18 -108 65 -360 344 -688 790 -919 1248 -310 613 -478
1256 -506 1944 -8 202 -11 233 -31 273 -38 78 -131 118 -234 99 -45 -9 -103
-59 -126 -111 -32 -70 -23 -380 21 -730 143 -1125 646 -2150 1451 -2957 l167
-168 -180 -272 c-99 -150 -183 -277 -187 -281 -10 -10 -248 211 -387 359 -409
439 -703 856 -953 1354 -215 426 -357 813 -471 1280 -109 450 -154 844 -154
1340 1 437 19 628 116 1173 27 151 -53 260 -191 260 -101 0 -167 -50 -197
-147 -40 -132 -104 -583 -125 -885 -15 -217 -6 -816 15 -1011 82 -745 253
-1369 551 -2010 363 -783 858 -1440 1542 -2050 l61 -55 -111 -332 c-62 -182
-115 -334 -118 -337 -3 -3 -66 44 -140 105 -1174 971 -1991 2303 -2324 3791
-231 1035 -216 2148 44 3168 673 2640 2842 4636 5521 5079 236 39 492 67 745
82 339 20 912 0 1205 -41 35 -5 66 -8 67 -6 3 3 -904 576 -912 576 -3 0 -5
-24 -5 -53z m381 -2252 c360 -45 690 -146 1005 -309 208 -108 506 -309 473
-320 -8 -3 -142 -30 -299 -61 -640 -126 -1033 -244 -1387 -416 -78 -38 -148
-69 -156 -69 -9 0 -48 18 -89 39 -214 116 -575 246 -913 329 -110 27 -343 78
-517 112 -175 35 -318 67 -318 72 0 4 45 41 99 82 439 326 989 522 1576 560
106 7 402 -4 526 -19z m-3877 -562 c329 -189 694 -297 1568 -464 1027 -196
1332 -289 1826 -559 57 -31 84 -40 122 -40 38 0 65 9 122 40 264 145 424 215
648 288 223 72 373 107 1170 267 311 63 637 132 725 154 399 99 697 214 930
359 44 28 82 49 83 47 6 -6 -28 -116 -63 -201 -34 -86 -55 -110 -185 -215
-121 -97 -327 -225 -506 -316 -211 -108 -370 -177 -749 -325 -674 -264 -1009
-427 -1323 -645 -290 -201 -588 -488 -792 -763 l-56 -76 -39 55 c-130 183
-420 486 -612 638 -376 299 -726 481 -1518 791 -522 205 -816 343 -1046 494
-197 128 -364 267 -387 321 -21 50 -82 228 -82 239 0 6 12 2 28 -8 15 -10 76
-46 136 -81z m897 -1702 l166 -93 -23 -94 c-47 -196 -54 -415 -19 -601 64
-338 290 -651 620 -858 322 -202 710 -237 1117 -102 l97 33 63 -116 c129 -238
270 -583 362 -888 51 -170 62 -196 103 -234 37 -35 73 -48 134 -48 62 0 105
18 147 63 28 29 43 65 91 223 106 343 214 610 352 869 l69 131 98 -32 c180
-60 287 -78 477 -77 181 0 247 10 391 58 177 59 352 173 510 330 202 201 318
416 365 675 29 158 13 437 -35 616 l-13 51 206 116 206 117 17 -58 c27 -87 65
-264 85 -392 22 -145 25 -603 5 -750 -98 -697 -382 -1279 -854 -1750 -684
-682 -1628 -995 -2568 -850 -1224 187 -2214 1120 -2474 2330 -51 236 -60 336
-60 630 0 307 16 450 75 677 17 65 33 128 36 141 l5 22 42 -23 c22 -13 116
-65 207 -116z m764 -432 c203 -137 385 -288 570 -473 189 -189 403 -446 381
-458 -7 -4 -48 -17 -92 -30 -64 -18 -104 -22 -209 -22 -143 1 -218 14 -341 64
-172 69 -354 226 -441 381 -50 90 -98 227 -114 329 -13 84 -8 231 11 303 l12
47 47 -26 c25 -15 105 -67 176 -115z m3962 -49 c9 -168 -38 -350 -128 -504
-58 -99 -221 -258 -319 -313 -153 -85 -355 -132 -511 -119 -82 7 -227 40 -243
56 -20 20 247 335 440 519 193 184 453 384 669 515 l60 36 13 -42 c8 -24 16
-90 19 -148z m-5268 -1474 c292 -728 778 -1291 1465 -1695 323 -190 687 -325
1076 -400 212 -40 391 -55 682 -55 l276 0 -91 -49 c-51 -27 -285 -146 -522
-264 -1008 -505 -1397 -716 -1864 -1012 -62 -39 -117 -71 -121 -69 -15 5 -199
240 -283 360 -469 673 -730 1429 -798 2309 -18 241 -7 689 25 984 14 132 26
245 26 250 1 6 23 -55 49 -135 27 -80 63 -180 80 -224z m6483 99 c19 -170 22
-256 22 -580 1 -627 -41 -909 -194 -1300 -193 -493 -510 -954 -975 -1421 -460
-462 -859 -778 -1970 -1564 -275 -194 -590 -419 -700 -498 -716 -520 -1220
-945 -1641 -1382 -675 -703 -1108 -1452 -1311 -2273 l-37 -149 -44 93 c-194
416 -310 824 -369 1299 -22 181 -25 696 -5 860 32 261 79 482 148 700 183 582
548 1182 984 1621 259 260 507 455 911 711 385 245 610 367 1623 880 943 477
1049 534 1371 726 694 416 1173 832 1563 1357 252 339 432 688 549 1063 45
147 42 153 75 -143z m-71 -3847 c-193 -564 -467 -1155 -869 -1878 -154 -277
-243 -433 -580 -1005 -479 -814 -665 -1149 -886 -1595 -497 -1000 -743 -1824
-807 -2698 -15 -209 -7 -745 15 -942 24 -216 53 -405 92 -599 19 -95 33 -176
30 -178 -6 -6 -131 89 -296 226 -978 807 -1652 1779 -1928 2781 -69 252 -67
230 -29 345 202 597 525 1157 971 1680 438 514 891 913 2011 1770 855 654
1180 929 1580 1336 282 288 507 563 681 835 37 57 69 103 71 101 2 -2 -24 -83
-56 -179z m-11967 -1263 c264 -56 480 -280 532 -552 18 -96 18 -156 -2 -251
-54 -262 -245 -466 -504 -538 -102 -29 -272 -24 -375 9 -188 62 -326 181 -416
362 -53 107 -72 203 -66 330 19 422 416 728 831 640z m16705 -1750 c250 -59
440 -298 441 -552 0 -258 -190 -498 -441 -558 -195 -46 -382 9 -530 155 -114
113 -169 242 -169 400 0 157 55 286 169 400 146 146 335 201 530 155z"/>
<path d="M9833 17020 c-71 -36 -106 -72 -141 -149 -21 -46 -24 -63 -20 -135 6
-99 27 -145 99 -210 64 -57 135 -81 224 -74 245 20 363 314 199 497 -66 73
-110 94 -214 99 -79 3 -89 2 -147 -28z"/>
<path d="M13305 24215 c-22 -8 -54 -29 -70 -47 -55 -60 -215 -454 -215 -529 0
-163 216 -261 333 -151 37 35 59 79 146 295 78 193 90 245 71 302 -14 43 -62
100 -100 120 -43 22 -120 27 -165 10z"/>
<path d="M24247 24219 c-113 -26 -179 -118 -163 -222 8 -49 169 -451 198 -493
33 -49 83 -77 143 -82 94 -8 171 34 206 113 33 71 26 110 -57 317 -127 320
-141 342 -230 367 -44 12 -45 12 -97 0z"/>
<path d="M26320 24222 c0 -4 14 -48 30 -98 197 -578 321 -1177 386 -1849 21
-230 30 -860 15 -1120 -76 -1300 -444 -2509 -1100 -3615 -121 -204 -320 -501
-466 -696 -69 -92 -125 -169 -125 -173 1 -8 316 -231 327 -231 20 0 346 458
498 700 847 1347 1285 2868 1285 4463 0 137 -4 301 -10 365 -5 65 -14 189 -20
277 -23 339 -72 695 -145 1060 -53 262 -131 575 -148 591 -9 9 -423 272 -514
328 -7 4 -13 3 -13 -2z"/>
<path d="M13944 22731 c-75 -34 -104 -95 -134 -279 -20 -121 22 -223 106 -258
40 -17 131 -18 171 -3 44 16 91 68 107 118 25 76 48 233 41 278 -19 125 -169
199 -291 144z"/>
<path d="M23531 22729 c-50 -26 -96 -84 -105 -133 -7 -39 15 -205 39 -282 19
-64 46 -99 96 -124 45 -24 134 -27 182 -6 46 19 91 75 107 132 12 43 12 62 -7
171 -11 67 -29 139 -40 160 -47 91 -177 130 -272 82z"/>
<path d="M10550 5505 l0 -1445 230 0 230 0 0 1445 0 1445 -230 0 -230 0 0
-1445z"/>
<path d="M12450 5506 l0 -1446 410 0 c336 0 425 3 488 16 281 58 441 256 472
582 13 139 13 1566 0 1692 -14 127 -33 200 -77 290 -49 101 -136 188 -235 235
-144 68 -147 68 -625 73 l-433 3 0 -1445z m755 1013 c55 -15 101 -52 128 -102
l22 -42 3 -840 c2 -606 0 -855 -8 -893 -14 -63 -57 -117 -115 -143 -33 -15
-66 -19 -182 -19 l-143 0 0 1025 0 1025 128 0 c70 0 145 -5 167 -11z"/>
<path d="M15230 5505 l0 -1445 625 0 625 0 0 210 0 210 -390 0 -390 0 0 435 0
435 310 0 310 0 0 215 0 215 -310 0 -310 0 0 375 0 375 390 0 390 0 0 210 0
210 -625 0 -625 0 0 -1445z"/>
<path d="M17721 6938 c0 -7 98 -656 217 -1443 l217 -1430 308 -3 c169 -1 307
0 307 3 0 4 97 645 215 1426 118 782 215 1429 215 1440 0 18 -10 19 -209 19
-208 0 -209 0 -214 -22 -3 -13 -70 -510 -148 -1105 -79 -595 -145 -1081 -147
-1079 -3 4 -292 2171 -292 2194 0 9 -54 12 -235 12 -182 0 -235 -3 -234 -12z"/>
<path d="M20520 5505 l0 -1445 605 0 605 0 0 210 0 210 -370 0 -370 0 0 1235
0 1235 -235 0 -235 0 0 -1445z"/>
<path d="M23416 6923 c-6 -27 -466 -2852 -466 -2859 0 -2 97 -4 215 -4 l214 0
6 33 c9 55 75 506 75 517 0 6 90 10 255 10 140 0 255 -2 255 -4 0 -7 70 -491
75 -523 l6 -33 229 0 c213 0 230 1 229 18 0 9 -105 658 -233 1442 l-232 1425
-311 3 -311 2 -6 -27z m494 -1890 c0 -10 -46 -13 -195 -13 -141 0 -195 3 -195
12 0 6 43 318 95 694 52 375 95 686 96 691 1 9 198 -1366 199 -1384z"/>
<path d="M25830 5505 l0 -1446 458 4 c504 4 495 3 639 71 137 66 242 198 290
367 16 56 18 104 18 369 0 337 -5 372 -67 500 -38 79 -123 165 -196 199 -29
14 -52 27 -52 30 0 3 20 17 45 30 95 50 168 156 207 299 19 67 21 105 22 292
0 248 -11 319 -71 440 -66 134 -172 215 -342 263 -71 19 -105 21 -513 25
l-438 3 0 -1446z m756 1010 c53 -15 90 -48 120 -105 16 -30 19 -63 22 -224 5
-257 -14 -321 -111 -377 -38 -22 -56 -24 -179 -27 l-138 -4 0 376 0 376 118 0
c75 0 136 -5 168 -15z m30 -1180 c67 -20 116 -70 140 -143 17 -49 19 -90 19
-302 l0 -245 -27 -56 c-21 -41 -38 -61 -70 -80 -40 -22 -54 -24 -210 -27
l-168 -4 0 436 0 436 133 0 c89 0 150 -5 183 -15z"/>
</g>
</svg>
